<?xml version="1.0" standalone="no"?>
<!DOCTYPE svg PUBLIC "-//W3C//DTD SVG 20010904//EN"
 "http://www.w3.org/TR/2001/REC-SVG-20010904/DTD/svg10.dtd">
<svg version="1.0" xmlns="http://www.w3.org/2000/svg"
 width="512.000000pt" height="512.000000pt" viewBox="0 0 512.000000 512.000000"
 preserveAspectRatio="xMidYMid meet">
<metadata>
Created by potrace 1.14, written by Peter Selinger 2001-2017
</metadata>
<g transform="translate(0.000000,512.000000) scale(0.100000,-0.100000)"
fill="#000000" stroke="none">
<path d="M0 5109 c0 -5 5 -7 10 -4 5 3 10 8 10 11 0 2 -4 4 -10 4 -5 0 -10 -5
-10 -11z"/>
<path d="M380 5105 c-127 -25 -308 -113 -365 -174 -33 -37 -7 -34 37 4 53 45
200 118 288 141 100 28 301 25 404 -4 243 -70 443 -252 530 -483 13 -35 27
-78 30 -95 6 -28 4 -32 -24 -44 -44 -18 -120 -106 -158 -183 -60 -122 -117
-334 -157 -590 -6 -34 -11 -40 -77 -73 l-71 -36 -111 18 c-129 21 -346 24
-424 6 -53 -12 -55 -11 -122 24 -37 19 -87 51 -110 71 -22 19 -44 33 -47 29
-11 -11 30 -47 109 -95 l77 -48 -79 -40 -79 -40 -15 21 c-14 20 -15 18 -15
-27 l-1 -48 43 29 c127 88 227 115 417 115 142 1 221 -9 384 -45 l98 -22 -6
-65 c-17 -178 -26 -400 -25 -633 l0 -257 -41 -52 c-49 -62 -122 -211 -145
-294 -9 -33 -19 -117 -22 -186 -6 -141 10 -247 53 -353 13 -33 21 -63 17 -66
-5 -4 -33 -17 -63 -29 -30 -13 -90 -43 -132 -67 -42 -24 -79 -44 -82 -44 -3 0
6 17 20 38 41 59 80 141 110 232 26 79 28 96 28 250 0 154 -2 171 -28 250 -57
175 -159 324 -293 431 -108 85 -333 190 -333 155 0 -7 26 -20 57 -30 207 -65
392 -227 496 -433 15 -28 39 -91 54 -140 23 -78 26 -104 26 -233 0 -129 -3
-155 -26 -233 -44 -142 -114 -264 -199 -342 -138 -129 -239 -196 -350 -231
-32 -10 -58 -23 -58 -31 0 -9 22 -5 79 15 l78 28 -47 -60 c-64 -84 -110 -162
-110 -189 0 -15 13 -1 42 48 109 183 262 330 483 464 151 92 363 178 449 184
l39 2 14 -65 c100 -464 212 -699 371 -777 55 -27 62 -28 212 -28 184 1 295 23
555 112 88 30 176 59 195 65 32 10 46 7 143 -35 267 -113 373 -215 467 -450
57 -142 57 -146 2 -95 -94 88 -222 158 -352 194 -91 25 -319 25 -410 0 -202
-55 -372 -179 -483 -352 -42 -65 -97 -181 -97 -204 0 -28 20 -4 39 47 88 232
291 414 538 485 111 32 305 32 416 0 247 -71 450 -253 538 -484 12 -32 26 -58
31 -58 21 0 -43 144 -106 238 -25 37 -46 73 -46 79 0 6 -12 46 -26 89 -32 94
-84 202 -129 264 l-32 46 44 48 c61 68 121 172 149 261 23 72 48 240 39 255
-7 11 5 19 159 109 l138 81 -7 -33 c-16 -72 -22 -182 -14 -255 9 -88 47 -217
84 -281 l25 -43 -32 -92 c-36 -106 -47 -219 -29 -305 7 -31 35 -102 62 -158
52 -109 190 -303 215 -303 10 0 0 19 -29 52 -105 124 -180 255 -217 377 -18
59 -21 89 -18 159 6 108 33 189 113 347 179 354 479 682 690 756 69 24 147 24
216 0 171 -58 390 -208 597 -405 48 -47 82 -72 82 -63 0 21 -183 186 -312 282
-130 97 -253 167 -353 200 -143 48 -253 22 -409 -96 -81 -61 -211 -190 -268
-265 -22 -30 -43 -54 -47 -54 -26 0 -215 231 -209 256 2 7 64 55 138 106 74
51 149 104 166 116 16 13 58 29 92 37 197 46 372 214 422 405 6 25 26 68 45
96 91 139 105 247 47 368 -18 38 -53 99 -79 135 -91 127 -344 371 -537 516
-59 44 -74 61 -66 71 15 17 163 78 252 103 197 55 509 87 703 71 175 -15 296
-51 383 -117 21 -16 32 -20 32 -11 0 19 -92 73 -165 98 -33 11 -98 27 -144 35
-94 17 -334 19 -451 5 -89 -11 -93 -8 -146 107 -47 99 -64 180 -64 303 0 128
18 209 70 315 149 306 506 469 834 380 53 -15 79 -14 63 1 -17 17 -171 44
-250 44 -283 0 -541 -160 -666 -414 -53 -106 -74 -197 -74 -321 -1 -129 22
-229 78 -339 24 -47 41 -86 38 -86 -3 0 -61 -11 -128 -25 -132 -27 -236 -60
-327 -106 -69 -35 -71 -35 -108 -8 l-28 22 54 65 c64 78 125 200 150 297 23
91 23 256 0 350 -37 153 -146 321 -269 412 -34 25 -99 63 -144 85 l-82 38 -46
88 c-25 48 -80 138 -121 200 -41 62 -72 117 -69 122 4 6 -5 10 -20 10 -30 0
-31 3 38 -93 81 -112 194 -314 236 -421 103 -264 91 -413 -57 -709 -41 -81
-80 -151 -87 -153 -7 -3 -33 7 -58 22 l-45 28 39 56 c160 235 187 546 69 798
-113 241 -326 407 -588 458 -407 78 -822 -182 -927 -583 -10 -37 -19 -69 -21
-71 -1 -2 -42 4 -90 14 -59 10 -122 15 -186 12 l-97 -4 -22 71 c-70 234 -250
429 -476 517 -145 56 -310 72 -453 43z m2340 -35 c267 -76 481 -296 550 -565
14 -56 20 -110 20 -194 0 -127 -15 -206 -56 -304 -31 -74 -109 -197 -125 -197
-6 0 -23 8 -37 18 -15 11 -89 54 -164 96 -76 43 -138 80 -138 82 0 3 14 19 31
37 17 18 45 61 62 97 30 60 32 73 32 170 0 97 -2 110 -31 170 -119 248 -443
305 -638 113 -57 -57 -107 -155 -114 -225 -4 -40 -8 -49 -21 -44 -91 29 -357
120 -361 123 -9 8 32 139 65 207 113 233 338 397 600 440 66 10 251 -3 325
-24z m859 -514 c115 -87 222 -252 255 -396 9 -37 16 -111 16 -170 0 -128 -18
-209 -70 -315 -36 -73 -131 -205 -148 -205 -4 0 -75 46 -158 103 l-151 103 39
29 c80 61 138 182 138 289 0 28 -11 82 -24 121 -21 61 -23 77 -14 130 12 78
-4 190 -43 305 -17 47 -33 93 -36 103 -5 15 7 12 67 -18 41 -20 98 -56 129
-79z m-1950 -156 c242 -49 536 -162 906 -347 741 -371 1494 -911 1752 -1258
126 -169 147 -262 85 -388 -152 -309 -772 -781 -1517 -1157 -379 -191 -642
-296 -935 -372 -143 -37 -166 -40 -295 -42 -114 -1 -149 2 -187 17 -187 72
-334 487 -413 1162 -32 274 -45 508 -45 840 0 336 13 564 45 793 67 478 167
715 323 762 49 15 182 10 281 -10z m-673 -806 c-3 -9 -6 -24 -6 -35 0 -22 -10
-23 -63 -8 l-38 10 43 23 c53 29 72 32 64 10z m-6 -1444 c12 -124 30 -280 42
-348 11 -68 19 -124 17 -126 -2 -1 -42 -13 -89 -25 -47 -13 -92 -25 -101 -28
-13 -4 -22 9 -37 50 -47 126 -56 177 -56 322 1 122 4 151 28 228 30 101 62
167 120 252 l41 60 7 -80 c4 -44 17 -181 28 -305z m3351 10 c-41 -106 -133
-215 -232 -273 -44 -26 -159 -70 -165 -64 -2 2 36 34 84 72 48 38 141 124 207
191 66 67 121 122 122 123 2 0 -6 -22 -16 -49z m-757 -690 c27 -39 76 -100
111 -137 l62 -67 -62 -91 c-35 -49 -88 -137 -118 -194 l-55 -104 -32 63 c-46
92 -71 198 -71 312 -1 89 14 195 30 226 7 12 71 61 82 62 3 0 27 -32 53 -70z
m-484 -253 c0 -138 -72 -320 -172 -431 l-51 -57 -36 34 c-50 48 -119 92 -205
133 l-74 35 66 69 c37 37 72 73 77 79 10 12 372 198 388 200 4 1 7 -28 7 -62z"/>
<path d="M2260 3473 c-294 -48 -517 -186 -669 -413 -245 -366 -201 -854 104
-1165 293 -300 714 -373 1090 -190 461 224 651 796 419 1258 -105 208 -296
378 -512 457 -129 47 -324 71 -432 53z m318 -84 c210 -56 394 -182 512 -354
53 -77 108 -205 130 -303 121 -545 -294 -1062 -855 -1062 -288 0 -562 146
-719 384 -103 155 -149 306 -149 486 0 236 82 438 247 608 218 226 538 318
834 241z"/>
<path d="M2268 2981 c-118 -23 -253 -134 -309 -254 -54 -117 -50 -278 12 -399
32 -62 134 -159 202 -191 274 -128 589 37 639 336 14 84 0 182 -38 262 -33 70
-129 172 -191 204 -89 45 -213 61 -315 42z"/>
<path d="M430 4694 c-111 -30 -202 -107 -254 -214 -29 -60 -31 -73 -31 -170 0
-97 2 -110 31 -170 145 -303 573 -303 718 0 29 60 31 73 31 170 0 97 -2 110
-31 170 -85 176 -276 264 -464 214z"/>
<path d="M4729 4327 c-72 -30 -121 -70 -164 -132 -108 -160 -75 -374 78 -494
121 -95 326 -95 446 0 l30 24 0 266 1 266 -39 27 c-100 70 -244 87 -352 43z"/>
<path d="M5001 2870 c-168 -81 -286 -243 -313 -427 -36 -246 91 -485 313 -593
81 -39 119 -49 119 -31 0 4 -20 14 -45 21 -102 29 -217 118 -286 223 -61 94
-84 174 -84 297 0 123 23 203 84 297 69 105 184 194 286 223 25 7 45 17 45 21
0 18 -38 8 -119 -31z"/>
<path d="M5058 2559 c-43 -43 -60 -69 -72 -109 -34 -114 -11 -206 74 -290 l55
-55 3 128 c1 70 1 184 0 255 l-3 127 -57 -56z"/>
<path d="M0 1990 c0 -225 4 -370 9 -370 6 0 37 25 70 56 185 171 185 457 0
628 -33 31 -64 56 -70 56 -5 0 -9 -145 -9 -370z"/>
<path d="M4215 1140 c-211 -45 -376 -193 -447 -400 -19 -53 -23 -87 -23 -180
0 -126 12 -177 69 -285 66 -128 257 -276 355 -275 36 1 36 1 -16 19 -209 76
-355 249 -385 460 -55 373 270 697 645 643 306 -44 524 -336 479 -643 -31
-212 -192 -401 -396 -465 l-41 -13 36 0 c61 -1 173 62 254 143 150 152 207
357 155 560 -27 107 -73 189 -150 267 -115 116 -234 169 -395 175 -55 2 -118
-1 -140 -6z"/>
<path d="M4243 836 c-85 -27 -156 -96 -185 -180 -38 -112 -15 -211 71 -297 85
-85 176 -107 291 -73 75 22 162 109 184 184 20 68 20 112 0 180 -22 75 -109
162 -184 184 -64 19 -120 19 -177 2z"/>
<path d="M325 584 c-134 -22 -348 -114 -323 -139 2 -3 38 13 79 35 121 63 212
84 364 84 104 0 145 -4 208 -22 247 -71 450 -253 538 -485 12 -31 26 -57 30
-57 14 0 11 11 -17 81 -94 231 -305 417 -549 484 -60 16 -271 28 -330 19z"/>
<path d="M325 157 c-22 -8 -55 -22 -74 -31 -37 -20 -131 -104 -131 -117 0 -5
146 -9 325 -9 179 0 325 4 325 9 0 19 -104 104 -158 129 -47 21 -74 27 -152
29 -59 2 -110 -2 -135 -10z"/>
<path d="M2295 157 c-22 -8 -55 -22 -74 -31 -37 -20 -131 -104 -131 -117 0 -5
146 -9 325 -9 179 0 325 4 325 9 0 19 -104 104 -158 129 -47 21 -74 27 -152
29 -59 2 -110 -2 -135 -10z"/>
</g>
</svg>
